<svg width="48" height="48" viewBox="0 0 48 48" xmlns="http://www.w3.org/2000/svg">
  <rect width="48" height="48" fill="#5b21b6" rx="8" ry="8"/>
  
  <!-- 八卦太极图案 -->
  <circle cx="24" cy="24" r="18" fill="#ffffff"/>
  <path d="M24 6C14.059 6 6 14.059 6 24s8.059 18 18 18 18-8.059 18-18S33.941 6 24 6zm0 9c4.971 0 9 4.029 9 9s-4.029 9-9 9-9-4.029-9-9 4.029-9 9-9z" fill="#5b21b6"/>
  
  <!-- 阴阳点 -->
  <circle cx="24" cy="15" r="3" fill="#ffffff"/>
  <circle cx="24" cy="33" r="3" fill="#5b21b6"/>
  
  <!-- 卦象线条，代替文字 -->
  <line x1="18" y1="22" x2="30" y2="22" stroke="#ffffff" stroke-width="2"/>
  <line x1="18" y1="26" x2="30" y2="26" stroke="#ffffff" stroke-width="2"/>
  <line x1="21" y1="24" x2="27" y2="24" stroke="#ffffff" stroke-width="2"/>
</svg> 